<?xml version="1.0" encoding="UTF-8" standalone="no"?>
<svg
   width="1024"
   height="1024"
   version="1.1"
   id="svg11"
   sodipodi:docname="mdx-mac-icon.svg"
   inkscape:version="1.4.2 (ebf0e94, 2025-05-08)"
   inkscape:export-filename="mdx-mac-icon.png"
   inkscape:export-xdpi="96"
   inkscape:export-ydpi="96"
   xmlns:inkscape="http://www.inkscape.org/namespaces/inkscape"
   xmlns:sodipodi="http://sodipodi.sourceforge.net/DTD/sodipodi-0.dtd"
   xmlns="http://www.w3.org/2000/svg"
   xmlns:svg="http://www.w3.org/2000/svg">
  <sodipodi:namedview
     id="namedview13"
     pagecolor="#ffffff"
     bordercolor="#000000"
     borderopacity="0.25"
     inkscape:showpageshadow="2"
     inkscape:pageopacity="0"
     inkscape:pagecheckerboard="true"
     inkscape:deskcolor="#d1d1d1"
     showgrid="false"
     inkscape:zoom="0.58365846"
     inkscape:cx="496.00926"
     inkscape:cy="507.14591"
     inkscape:window-width="1709"
     inkscape:window-height="1352"
     inkscape:window-x="2160"
     inkscape:window-y="752"
     inkscape:window-maximized="0"
     inkscape:current-layer="layer1" />
  <defs
     id="defs5">
    <filter
       id="blur_shadow"
       x="-0.034951456"
       y="-0.034951456"
       width="1.0699029"
       height="1.0699029">
      <feGaussianBlur
         stdDeviation="12"
         id="feGaussianBlur2" />
    </filter>
  </defs>
  <path
     d="m 924,355.412 c 0,-9.782 0,-18.35 -0.056,-28.133 -0.049,-8.241 -0.144,-16.48 -0.368,-24.716 -0.484,-17.954 -1.543,-36.061 -4.736,-53.813 -3.238,-18.01 -8.526,-34.77 -16.859,-51.133 a 171.963,171.963 0 0 0 -31.661,-43.559 172.06,172.06 0 0 0 -43.574,-31.64 c -16.381,-8.335 -33.159,-13.621 -51.188,-16.858 -17.755,-3.188 -35.867,-4.245 -53.82,-4.73 -8.243,-0.223 -16.485,-0.317 -24.73,-0.368 -9.788,-0.06 -19.576,-0.055 -29.364,-0.055 L 553.997,100 h -84.999 l -111.637,0.407 c -9.807,0 -19.614,-0.005 -29.421,0.055 -8.262,0.051 -16.52,0.145 -24.778,0.368 -17.995,0.485 -36.148,1.543 -53.945,4.735 -18.053,3.236 -34.857,8.52 -51.259,16.849 a 172.405,172.405 0 0 0 -43.667,31.644 171.994,171.994 0 0 0 -31.718,43.551 c -8.356,16.372 -13.654,33.143 -16.9,51.162 -3.196,17.746 -4.255,35.846 -4.742,53.792 -0.222,8.237 -0.318,16.476 -0.368,24.716 -0.06,9.784 -0.563,21.937 -0.563,31.72 v 195.999 l 0.508,112.429 c 0,9.796 -0.004,19.592 0.055,29.388 0.05,8.252 0.146,16.502 0.369,24.751 0.486,17.976 1.547,36.109 4.746,53.886 3.245,18.032 8.542,34.818 16.891,51.201 a 172.24,172.24 0 0 0 31.722,43.619 172.444,172.444 0 0 0 43.659,31.684 c 16.412,8.346 33.224,13.639 51.288,16.88 17.789,3.193 35.936,4.252 53.924,4.737 8.258,0.223 16.517,0.318 24.779,0.368 9.807,0.059 19.613,0.059 29.42,0.059 h 310.283 c 9.788,0 19.576,0 29.364,-0.059 8.245,-0.05 16.487,-0.145 24.73,-0.368 17.96,-0.486 36.078,-1.546 53.841,-4.741 18.018,-3.241 34.788,-8.532 51.159,-16.873 a 172.004,172.004 0 0 0 43.582,-31.687 172.23,172.23 0 0 0 31.659,-43.612 c 8.337,-16.391 13.625,-33.184 16.865,-51.229 3.19,-17.77 4.248,-35.896 4.733,-53.865 0.223,-8.25 0.318,-16.5 0.367,-24.751 C 924,687.019 924,677.223 924,667.427 Z"
     fill="rgba(0,0,0,0.3)"
     filter="url(#blur_shadow)"
     transform="translate(0,10)"
     id="path7" />
  <path
     d="m 924,355.412 c 0,-9.782 0,-18.35 -0.056,-28.133 -0.049,-8.241 -0.144,-16.48 -0.368,-24.716 -0.484,-17.954 -1.543,-36.061 -4.736,-53.813 -3.238,-18.01 -8.526,-34.77 -16.859,-51.133 a 171.963,171.963 0 0 0 -31.661,-43.559 172.06,172.06 0 0 0 -43.574,-31.64 c -16.381,-8.335 -33.159,-13.621 -51.188,-16.858 -17.755,-3.188 -35.867,-4.245 -53.82,-4.73 -8.243,-0.223 -16.485,-0.317 -24.73,-0.368 -9.788,-0.06 -19.576,-0.055 -29.364,-0.055 L 553.997,100 h -84.999 l -111.637,0.407 c -9.807,0 -19.614,-0.005 -29.421,0.055 -8.262,0.051 -16.52,0.145 -24.778,0.368 -17.995,0.485 -36.148,1.543 -53.945,4.735 -18.053,3.236 -34.857,8.52 -51.259,16.849 a 172.405,172.405 0 0 0 -43.667,31.644 171.994,171.994 0 0 0 -31.718,43.551 c -8.356,16.372 -13.654,33.143 -16.9,51.162 -3.196,17.746 -4.255,35.846 -4.742,53.792 -0.222,8.237 -0.318,16.476 -0.368,24.716 -0.06,9.784 -0.563,21.937 -0.563,31.72 v 195.999 l 0.508,112.429 c 0,9.796 -0.004,19.592 0.055,29.388 0.05,8.252 0.146,16.502 0.369,24.751 0.486,17.976 1.547,36.109 4.746,53.886 3.245,18.032 8.542,34.818 16.891,51.201 a 172.24,172.24 0 0 0 31.722,43.619 172.444,172.444 0 0 0 43.659,31.684 c 16.412,8.346 33.224,13.639 51.288,16.88 17.789,3.193 35.936,4.252 53.924,4.737 8.258,0.223 16.517,0.318 24.779,0.368 9.807,0.059 19.613,0.059 29.42,0.059 h 310.283 c 9.788,0 19.576,0 29.364,-0.059 8.245,-0.05 16.487,-0.145 24.73,-0.368 17.96,-0.486 36.078,-1.546 53.841,-4.741 18.018,-3.241 34.788,-8.532 51.159,-16.873 a 172.004,172.004 0 0 0 43.582,-31.687 172.23,172.23 0 0 0 31.659,-43.612 c 8.337,-16.391 13.625,-33.184 16.865,-51.229 3.19,-17.77 4.248,-35.896 4.733,-53.865 0.223,-8.25 0.318,-16.5 0.367,-24.751 C 924,687.019 924,677.223 924,667.427 Z"
     fill="#ffffff"
     id="path9" />
  <path
     d="M 312.75147,612.15381 218.04981,303.82285 h -2.20236 q 0.55059,11.01182 1.65177,33.03546 1.10118,22.02364 2.20237,47.35082 1.10118,24.7766 1.10118,45.14847 V 612.15381 H 146.47298 V 219.03183 h 113.42175 l 93.04988,300.62269 h 1.65177 L 453.15217,219.03183 H 566.57392 V 612.15381 H 488.94059 V 426.05405 q 0,-18.72009 0.55059,-42.9461 1.10118,-24.226 1.65177,-45.69905 1.10118,-22.02364 1.65177,-33.03546 h -2.20236 L 389.28361,612.15381 Z"
     id="text354"
     style="font-weight:bold;font-size:550.591px;-inkscape-font-specification:'sans-serif Bold';stroke:#000000;stroke-width:0"
     aria-label="M" />
  <g
     id="g675"
     transform="matrix(1,0,0,0.78461343,-42.833269,14.844121)">
    <path
       sodipodi:type="star"
       style="fill:#000000;stroke:#000000;stroke-width:0"
       id="path562"
       inkscape:flatsided="true"
       sodipodi:sides="3"
       sodipodi:cx="556.83252"
       sodipodi:cy="183.32639"
       sodipodi:r1="99.903496"
       sodipodi:r2="49.951748"
       sodipodi:arg1="0.5404195"
       sodipodi:arg2="1.5876171"
       inkscape:rounded="0"
       inkscape:randomized="0"
       d="M 642.49906,234.72631 469.48561,231.81582 558.51289,83.437023 Z"
       inkscape:transform-center-x="-1.2140227"
       inkscape:transform-center-y="16.025401"
       transform="matrix(-1.4449743,0,0,-0.66098533,1603.3946,817.15065)" />
    <rect
       style="fill:#000000;stroke:#000000;stroke-width:0"
       id="rect566"
       width="100"
       height="414.66852"
       x="750"
       y="262" />
  </g>
  <g
     inkscape:groupmode="layer"
     id="layer1"
     inkscape:label="Extended">
    <path
       d="M 165.62162,729.7572 V 597.28105 h 80.60623 v 22.4107 h -58.73772 v 29.36886 h 54.58089 v 22.32034 h -54.58089 v 36.05592 h 60.72576 v 22.32033 z m 90.18499,0 37.14032,-69.12978 -33.70642,-63.34637 h 25.66387 l 21.77814,42.56226 21.32631,-42.56226 h 25.39276 l -33.70641,64.3404 37.14031,68.13575 h -26.47716 l -24.12764,-45.81542 -24.12765,45.81542 z m 136.63298,0 V 619.69175 h -32.26057 v -22.4107 h 86.29927 v 22.4107 h -32.1702 V 729.7572 Z m 68.31649,0 V 597.28105 h 80.60623 v 22.4107 h -58.73772 v 29.36886 h 54.58089 v 22.32034 h -54.58089 v 36.05592 h 60.72576 v 22.32033 z m 101.39033,0 V 597.28105 h 21.32631 l 44.45993,88.46805 v -88.46805 h 20.42266 V 729.7572 H 626.30607 L 582.56906,643.36757 V 729.7572 Z M 671.3082,597.28105 h 40.03201 q 15.18145,0 22.86253,3.4339 7.77145,3.34353 14.27779,11.38608 6.50633,8.04255 10.21132,20.87448 3.705,12.83194 3.705,31.8991 0,17.16949 -3.88573,29.91106 -3.88572,12.6512 -9.84986,20.06119 -5.96414,7.40999 -14.45852,11.20535 -8.40401,3.70499 -21.68777,3.70499 H 671.3082 Z m 21.8685,22.4107 v 87.74512 h 16.44657 q 10.57279,0 15.2718,-1.98805 4.78939,-1.98804 7.77146,-5.96413 3.07243,-4.06646 5.06048,-12.74157 1.98804,-8.67511 1.98804,-22.86253 0,-14.72961 -2.07841,-23.22399 -1.98805,-8.49438 -6.3256,-13.37413 -4.24719,-4.87975 -10.39206,-6.41596 -4.60865,-1.17476 -17.80205,-1.17476 z M 781.01219,729.7572 V 597.28105 h 80.60622 v 22.4107 h -58.73772 v 29.36886 h 54.5809 v 22.32034 h -54.5809 v 36.05592 h 60.72577 V 729.7572 Z M 882.04105,597.28105 h 40.03201 q 15.18145,0 22.86253,3.4339 7.77145,3.34353 14.27779,11.38608 6.50633,8.04255 10.21132,20.87448 3.705,12.83194 3.705,31.8991 0,17.16949 -3.88573,29.91106 -3.88572,12.6512 -9.84986,20.06119 -5.96414,7.40999 -14.45852,11.20535 -8.40401,3.70499 -21.68777,3.70499 h -41.20677 z m 21.8685,22.4107 v 87.74512 h 16.44657 q 10.57278,0 15.2718,-1.98805 4.78939,-1.98804 7.77145,-5.96413 3.07244,-4.06646 5.06048,-12.74157 1.98805,-8.67511 1.98805,-22.86253 0,-14.72961 -2.07841,-23.22399 -1.98805,-8.49438 -6.3256,-13.37413 -4.24719,-4.87975 -10.39206,-6.41596 -4.60865,-1.17476 -17.80205,-1.17476 z"
       id="text1"
       style="font-weight:bold;font-stretch:condensed;font-size:185.069px;font-family:Arial;-inkscape-font-specification:'Arial, Bold Condensed';display:inline;stroke:#000000;stroke-width:7.71121"
       transform="scale(0.89793098,1.1136713)"
       aria-label="EXTENDED" />
  </g>
</svg>
