<?xml version="1.0" encoding="UTF-8" standalone="no"?>
<svg
   width="1024"
   height="1024"
   version="1.1"
   id="svg11"
   sodipodi:docname="mdx-win-icon.svg"
   inkscape:version="1.4.2 (ebf0e94, 2025-05-08)"
   inkscape:export-filename="mdx-mac-icon.png"
   inkscape:export-xdpi="96"
   inkscape:export-ydpi="96"
   xmlns:inkscape="http://www.inkscape.org/namespaces/inkscape"
   xmlns:sodipodi="http://sodipodi.sourceforge.net/DTD/sodipodi-0.dtd"
   xmlns="http://www.w3.org/2000/svg"
   xmlns:svg="http://www.w3.org/2000/svg">
  <sodipodi:namedview
     id="namedview13"
     pagecolor="#ffffff"
     bordercolor="#000000"
     borderopacity="0.25"
     inkscape:showpageshadow="2"
     inkscape:pageopacity="0"
     inkscape:pagecheckerboard="true"
     inkscape:deskcolor="#d1d1d1"
     showgrid="false"
     inkscape:zoom="0.58365846"
     inkscape:cx="496.00926"
     inkscape:cy="645.9257"
     inkscape:window-width="1709"
     inkscape:window-height="1352"
     inkscape:window-x="2160"
     inkscape:window-y="752"
     inkscape:window-maximized="0"
     inkscape:current-layer="layer1" />
  <defs
     id="defs5">
    <inkscape:path-effect
       effect="fillet_chamfer"
       id="path-effect3"
       is_visible="true"
       lpeversion="1"
       nodesatellites_param="F,0,0,1,0,218.67217,0,1 @ F,0,0,1,0,231.22355,0,1 @ F,0,0,1,0,228.25457,0,1 @ F,0,0,1,0,219.02674,0,1"
       radius="0"
       unit="px"
       method="auto"
       mode="F"
       chamfer_steps="1"
       flexible="false"
       use_knot_distance="true"
       apply_no_radius="true"
       apply_with_radius="true"
       only_selected="false"
       hide_knots="false" />
    <inkscape:path-effect
       effect="fillet_chamfer"
       id="path-effect2"
       is_visible="true"
       lpeversion="1"
       nodesatellites_param="F,0,0,1,0,0,0,1 @ F,0,0,1,0,0,0,1 @ F,0,0,1,0,0,0,1 @ F,0,0,1,0,0,0,1"
       radius="0"
       unit="px"
       method="auto"
       mode="F"
       chamfer_steps="1"
       flexible="false"
       use_knot_distance="true"
       apply_no_radius="true"
       apply_with_radius="true"
       only_selected="false"
       hide_knots="false" />
    <filter
       id="blur_shadow"
       x="-0.034951456"
       y="-0.034951456"
       width="1.0699029"
       height="1.0699029">
      <feGaussianBlur
         stdDeviation="12"
         id="feGaussianBlur2" />
    </filter>
  </defs>
  <path
     d="m 924,355.412 c 0,-9.782 0,-18.35 -0.056,-28.133 -0.049,-8.241 -0.144,-16.48 -0.368,-24.716 -0.484,-17.954 -1.543,-36.061 -4.736,-53.813 -3.238,-18.01 -8.526,-34.77 -16.859,-51.133 a 171.963,171.963 0 0 0 -31.661,-43.559 172.06,172.06 0 0 0 -43.574,-31.64 c -16.381,-8.335 -33.159,-13.621 -51.188,-16.858 -17.755,-3.188 -35.867,-4.245 -53.82,-4.73 -8.243,-0.223 -16.485,-0.317 -24.73,-0.368 -9.788,-0.06 -19.576,-0.055 -29.364,-0.055 L 553.997,100 h -84.999 l -111.637,0.407 c -9.807,0 -19.614,-0.005 -29.421,0.055 -8.262,0.051 -16.52,0.145 -24.778,0.368 -17.995,0.485 -36.148,1.543 -53.945,4.735 -18.053,3.236 -34.857,8.52 -51.259,16.849 a 172.405,172.405 0 0 0 -43.667,31.644 171.994,171.994 0 0 0 -31.718,43.551 c -8.356,16.372 -13.654,33.143 -16.9,51.162 -3.196,17.746 -4.255,35.846 -4.742,53.792 -0.222,8.237 -0.318,16.476 -0.368,24.716 -0.06,9.784 -0.563,21.937 -0.563,31.72 v 195.999 l 0.508,112.429 c 0,9.796 -0.004,19.592 0.055,29.388 0.05,8.252 0.146,16.502 0.369,24.751 0.486,17.976 1.547,36.109 4.746,53.886 3.245,18.032 8.542,34.818 16.891,51.201 a 172.24,172.24 0 0 0 31.722,43.619 172.444,172.444 0 0 0 43.659,31.684 c 16.412,8.346 33.224,13.639 51.288,16.88 17.789,3.193 35.936,4.252 53.924,4.737 8.258,0.223 16.517,0.318 24.779,0.368 9.807,0.059 19.613,0.059 29.42,0.059 h 310.283 c 9.788,0 19.576,0 29.364,-0.059 8.245,-0.05 16.487,-0.145 24.73,-0.368 17.96,-0.486 36.078,-1.546 53.841,-4.741 18.018,-3.241 34.788,-8.532 51.159,-16.873 a 172.004,172.004 0 0 0 43.582,-31.687 172.23,172.23 0 0 0 31.659,-43.612 c 8.337,-16.391 13.625,-33.184 16.865,-51.229 3.19,-17.77 4.248,-35.896 4.733,-53.865 0.223,-8.25 0.318,-16.5 0.367,-24.751 C 924,687.019 924,677.223 924,667.427 Z"
     fill="rgba(0,0,0,0.3)"
     filter="url(#blur_shadow)"
     transform="translate(0,10)"
     id="path7" />
  <path
     d="m 1007.9532,320.24816 c 0,-11.97867 0,-22.47072 -0.067,-34.45062 -0.059,-10.09162 -0.1733,-20.18079 -0.443,-30.26629 -0.5826,-21.9858 -1.8574,-44.15896 -5.701,-65.8974 -3.89785,-22.05438 -10.26339,-42.57805 -20.2944,-62.61557 A 207.00389,210.57949 0 0 0 943.33484,73.677553 207.12065,210.69827 0 0 0 890.88177,34.932387 C 871.16281,24.725656 850.96596,18.252617 829.26319,14.288707 807.89026,10.384801 786.08758,9.0904383 764.4763,8.4965254 754.55362,8.2234479 744.63215,8.108339 734.70707,8.0458863 c -11.7825,-0.073474 -23.565,-0.067351 -35.3475,-0.067351 L 562.55473,7.4801383 H 460.23549 l -134.38527,0.498397 c -11.80537,0 -23.61074,-0.00612 -35.41611,0.067351 -9.94555,0.062453 -19.88628,0.1775616 -29.82701,0.4506391 -21.66184,0.5939129 -43.51388,1.8895006 -64.93737,5.7983046 -21.73166,3.962685 -41.95981,10.433275 -61.70404,20.632658 A 207.53595,211.12074 0 0 0 81.400665,73.677553 207.0412,210.61745 0 0 0 43.219491,127.00849 c -10.058702,20.04854 -16.436275,40.58568 -20.343712,62.65108 -3.847249,21.73109 -5.122041,43.89567 -5.708277,65.87168 -0.267237,10.08672 -0.382799,20.17589 -0.442987,30.26629 -0.07223,11.98112 -0.677723,26.86323 -0.677723,38.84313 v 240.01308 l 0.611515,137.67637 c 0,11.99581 -0.0048,23.99163 0.06621,35.98745 0.06019,10.10509 0.17575,20.20773 0.444191,30.30915 0.585032,22.01274 1.862232,44.21774 5.713092,65.98679 3.906233,22.08132 10.282602,42.63683 20.332878,62.69884 a 207.33733,210.91869 0 0 0 38.185989,53.4142 207.5829,211.1685 0 0 0 52.555393,38.79905 c 19.75627,10.2202 39.99405,16.7018 61.73895,20.6706 21.41386,3.91 43.25867,5.2069 64.91209,5.8008 9.94073,0.2731 19.88266,0.3894 29.82821,0.4506 11.80537,0.072 23.60954,0.072 35.41491,0.072 h 373.50935 c 11.7825,0 23.565,0 35.3475,-0.072 9.92508,-0.061 19.84655,-0.1775 29.76923,-0.4506 21.6197,-0.5952 43.42961,-1.8932 64.81217,-5.8057 21.68953,-3.9688 41.87675,-10.44795 61.58367,-20.66203 a 207.05324,210.62969 0 0 0 52.4627,-38.80272 207.32529,210.90645 0 0 0 38.11015,-53.40563 c 10.03583,-20.07181 16.40137,-40.63589 20.30161,-62.73312 3.84,-21.76049 5.1136,-43.95691 5.6974,-65.96108 0.2685,-10.10264 0.3828,-20.20528 0.4418,-30.30915 0.067,-11.99582 0.067,-23.99164 0.067,-35.98745 z"
     fill="#ffffff"
     id="path9"
     style="stroke-width:1.21412;fill:#fff6d5" />
  <g
     id="g675"
     transform="matrix(1.0205599,0,0,0.95251985,10.402011,-119.10725)">
    <path
       sodipodi:type="star"
       style="fill:#000000;stroke:#000000;stroke-width:0"
       id="path562"
       inkscape:flatsided="true"
       sodipodi:sides="3"
       sodipodi:cx="556.83252"
       sodipodi:cy="183.32639"
       sodipodi:r1="99.903496"
       sodipodi:r2="49.951748"
       sodipodi:arg1="0.5404195"
       sodipodi:arg2="1.5876171"
       inkscape:rounded="0"
       inkscape:randomized="0"
       d="M 642.49906,234.72631 469.48561,231.81582 558.51289,83.437023 Z"
       inkscape:transform-center-x="-1.2140227"
       inkscape:transform-center-y="23.231763"
       transform="matrix(-1.4449743,0,0,-0.95821969,1603.3946,841.951)" />
    <rect
       style="fill:#000000;stroke:#000000;stroke-width:0"
       id="rect566"
       width="100"
       height="414.66852"
       x="750"
       y="262" />
  </g>
  <g
     inkscape:groupmode="layer"
     id="layer1"
     inkscape:label="Extended">
    <path
       d="M 78.934654,888.45652 V 666.52777 h 88.022526 v 37.54321 h -64.14197 v 49.19976 h 59.60268 v 37.39183 h -59.60268 v 60.40214 h 66.31292 v 37.39181 z m 98.482606,0 40.55746,-115.80865 -36.80762,-106.1201 h 28.02511 l 23.78188,71.30182 23.28847,-71.30182 h 27.72905 L 247.184,774.3131 287.74146,888.45652 h -28.91323 l -26.34755,-76.75163 -26.34755,76.75163 z m 149.2041,0 V 704.07098 h -35.22874 v -37.54321 h 94.23937 v 37.54321 h -35.13008 v 184.38554 z m 74.60206,0 V 666.52777 h 88.02253 v 37.54321 h -64.14196 v 49.19976 h 59.60268 v 37.39183 h -59.60268 v 60.40214 h 66.31292 v 37.39181 z m 110.71893,0 V 666.52777 h 23.28846 l 48.55053,148.20482 V 666.52777 h 22.30168 V 888.45652 H 582.0051 L 534.24401,743.73355 V 888.45652 Z M 631.14773,666.52777 h 43.71522 q 16.57825,0 24.96604,5.75261 8.48646,5.6012 15.59143,19.07436 7.10495,13.47316 11.15083,34.96967 4.04588,21.49651 4.04588,53.43849 0,28.76294 -4.24324,50.10807 -4.24323,21.19374 -10.7561,33.60722 -6.5129,12.41346 -15.7888,18.77161 -9.17724,6.20672 -23.68319,6.20672 h -44.99807 z m 23.88055,37.54321 v 146.99373 h 17.95976 q 11.54556,0 16.67691,-3.33044 5.23004,-3.33045 8.48648,-9.99133 3.35511,-6.8123 5.52608,-21.34513 2.17095,-14.53284 2.17095,-38.30012 0,-24.67556 -2.26964,-38.90564 -2.17096,-14.2301 -6.90759,-22.40484 -4.63797,-8.17471 -11.34821,-10.74823 -5.03267,-1.968 -19.43994,-1.968 z m 95.91693,184.38554 V 666.52777 h 88.02253 v 37.54321 h -64.14198 v 49.19976 h 59.60269 v 37.39183 h -59.60269 v 60.40214 h 66.31293 v 37.39181 z M 861.26939,666.52777 h 43.71522 q 16.57824,0 24.96602,5.75261 8.48649,5.6012 15.59146,19.07436 7.10495,13.47316 11.15083,34.96967 4.04588,21.49651 4.04588,53.43849 0,28.76294 -4.24325,50.10807 -4.24323,21.19374 -10.75611,33.60722 -6.51289,12.41346 -15.78881,18.77161 -9.17722,6.20672 -23.68317,6.20672 h -44.99807 z m 23.88054,37.54321 v 146.99373 h 17.95978 q 11.54554,0 16.67691,-3.33044 5.23003,-3.33045 8.48645,-9.99133 3.35514,-6.8123 5.52608,-21.34513 2.17098,-14.53284 2.17098,-38.30012 0,-24.67556 -2.26965,-38.90564 -2.17097,-14.2301 -6.90759,-22.40484 -4.63797,-8.17471 -11.34819,-10.74823 -5.03269,-1.968 -19.43996,-1.968 z"
       id="text1"
       style="font-weight:bold;font-stretch:condensed;font-size:185.069px;font-family:Arial;-inkscape-font-specification:'Arial, Bold Condensed';display:inline;stroke:#000000;stroke-width:10.4297"
       aria-label="EXTENDED" />
    <path
       d="M 78.08908,726.23871 V 171.56674 h 137.34374 l 82.48192,378.35742 81.7252,-378.35742 H 517.36203 V 726.23871 H 432.23162 V 289.61426 L 341.8042,726.23871 h -88.53564 l -89.6707,-436.62445 v 436.62445 z"
       id="text2"
       style="font-weight:bold;font-stretch:condensed;font-size:774.876px;font-family:Arial;-inkscape-font-specification:'Arial, Bold Condensed';stroke:#000000;stroke-width:32.2866"
       transform="scale(1.2273711,0.8147495)"
       aria-label="M" />
  </g>
  <g
     inkscape:groupmode="layer"
     id="layer2"
     inkscape:label="Border">
    <path
       style="fill:none;stroke:#000000;stroke-width:10.26359255;stroke-linejoin:round;stroke-dasharray:none"
       id="rect2"
       width="1022.8585"
       height="1022.8585"
       x="1.7133307"
       y="0"
       sodipodi:type="rect"
       transform="matrix(0.97159038,0,0,0.98331584,13.721518,9.6727606)"
       inkscape:path-effect="#path-effect3"
       d="m 220.3855,0 h 572.9628 a 231.22355,231.22355 45 0 1 231.2236,231.22355 v 563.3804 A 228.25457,228.25457 135 0 1 796.31728,1022.8585 H 220.74007 A 219.02674,219.02674 45 0 1 1.7133307,803.83178 V 218.67217 A 218.67217,218.67217 135 0 1 220.3855,0 Z" />
  </g>
</svg>
